/* XPM */
static char *_fe081ba11e8423cd236060525f52019HCTnoWgZ2H0WZWbj[] = {
/* columns rows colors chars-per-pixel */
"32 32 2 1 ",
"  c #E75952",
". c #58AEEE",
/* pixels */
"                                ",
"                                ",
"                                ",
"                                ",
"                                ",
"                                ",
"                                ",
"      ....................      ",
"      ....................      ",
"      ..                        ",
"      ..                        ",
"      ..                        ",
"      ..                        ",
"      ..                        ",
"      ..                        ",
"      ..                        ",
"      ..............            ",
"      ..............            ",
"      ..                        ",
"      ..                        ",
"      ..                        ",
"      ..                        ",
"      ..                        ",
"      ..                        ",
"      ....................      ",
"      ....................      ",
"                                ",
"                                ",
"                                ",
"                                ",
"                                ",
"                                "
};
