/* XPM */
static char *_9e011b9d33a40edddc540009b1426d3YWTN8AgEGRnMVPto[] = {
/* columns rows colors chars-per-pixel */
"64 64 11 1 ",
"  c #231E18",
". c #241F19",
"X c #26211A",
"o c #29221A",
"O c #2B241B",
"+ c #2B241D",
"@ c #2E251F",
"# c #2F271F",
"$ c #312520",
"% c #302720",
"& c #312821",
/* pixels */
"o@@@@@@@o@@$@@@@o@@@@@@@+@@@$@$$@&&@&&@@@&&&$$$$@$&@$@@@O@@@$@@@",
"+@@@@@@@o@@@@@@@o@@@@@@@+@@$$$$@@@&&$$@$+&&&$$$$@&@&@@@$O$$$$$@@",
"+@@@@$@@o@@@@@@@o@@@@@@@+@@@$$@@@$$$$$$$@$&$$@$&@&$@$$$$O$&&$$@@",
"+@@@@@@@o@@@@@$$+@@@@@@@+@@@@@@@+@$$$$$$@$$$&@$$@&$$@$$$O&&&$$@@",
"+@@@@@$@o@@$$$$$@@@@@@@@+@@&@@$@@@$$$$$$@$$$@$&&@$$$$$$&@$$&&@@@",
"o@@@@@@@@@@$$@@$+@@@@@@@+@@&$@$$+&$$$$$$@$$&$$&&@$$$$$@&@$&&&@@@",
"o@@@@@@@@@$$@@@$+@@@@@@@+@@&@&$$@&$$$$$$@$&&$$$$@$$$&&&&@$$$&&&&",
"o@@@@@@@@$&@@@@@o@@@@@@@+@&@$$$$@&$&&$$$@$&&$$$$@$$&$&&&@$$$$$$$",
"O$@@@@@@+$@@@@@@o@@@@@@@+@$@$@$$@$@$$$$$@$$$$$$$O&&&$$$$O&&&$$$$",
"+$@@@@@@o$@@@@@@o@@@@@@@+@@$@$$$@$$$&$$$@$$$$$$$O&&&$$$$O&&&$$$$",
"+$@@@@$$o@@@@@@@o@@@@@@@@$@@@@$$@$&&&&&&@$&$&&$$O$$$$$$&O$&&$$$&",
"@$@@@@@@o@@@@@@@+@@@@@@@+@@@$@$&@$&&&&&&@$&&&&$$O$$$$$$&O$$&$@@&",
"@$@@@@@@o@@@@@@@+@@@@@@@+$$@&&&&@$$&&&&$@&&&&&&$O$$$$$&&O$$$$$&&",
"@$@@@@@@o@@@@@@@+@@@@@@@+@$$$&&&+$$&&&&$@&$&&&$$O$$$$$&&O$$$$$&&",
"@$@@@@@@o@@@@@@@+@@@@@@@+@@@&@@$@$$$&&$$@$$$&&$$O$&$$&$&O$$$$&&&",
"@++ooooooooooooo+++++++++@+@@@+@@@@@@@@@@@@@@@OOOOOOOOOOO@@@@OO@",
"+@@@@@@@o@@@@@@@+@@@@@@@+@&&$&&&@$&&$$$$@$&$$$$$O$&&$$$$O$$$$$$$",
"o@@@@@@@o@@@@@@@+@@@@@@@+@$$$&$&@&$&&$$$@&&$$$$$O$&&$$$&O&$@@@@@",
"o@@@@@@@o@@@@@@@+@@@@@@@+@$$$$&&@&&$&$&$O&&&&$&&O$&&&&$$@&@@@@@@",
"o@@@@@@@o@@@@@@@+@@@@@@@+@@$$&&&@&&&&&&&@&&&&&&&O$&&&&&$@&@@$@@@",
"o@@@@@@@o@@@@@@@o@@@@@@@+@@@$$&&@&&&&&&&@&&@$$$&O&&&&&&&@&$$@@@@",
"o@@@@@@@o@@@@@@@o@@@@@@@+@@$&&&&@&&&&&&&@&&$$$$$@$&&&&&&@&&$&@@@",
"o@@@@@@@o@@@@@@@o@@@@@@@+@@$&&&&@&&&&&&&@&&$$$$&@&&&&&&&@$$$$$@@",
"o@@@@@@@o@@@@@@@o@@@@@@@+$$$@$$$@&&&&&&&@&&&$$$&@&&&&&&&O$$$$@@@",
"o@@@@@@@+@@@@@@@o@@@@@@@+@@@@&$&@&$&&&&&@$&&&&&&@&&&&&&&@&$&@@@@",
"o@@@@@@@+@@@@@@$o@@@@@@@+@@@$@@$@$&&&&&&@$$&&&&&@&&&&&&&@&$@@@@@",
"o@@@@@@@ @@@$$$@o$@@$@@@+@@$$@@$@$&$&&&&@&$$$$&&@&&&&&&&o&@$$@@@",
"+@@@@@@@ @@$@$@@o@@@@$$@+@@@@$@&@$&$$$$&@&$$&$&&@&&&&&&&X&$$$$@@",
"+@@@@@@@o@@@@@$@O$$$@@$@+@@@$@$&@@&&&$&&@&$$&&&&@&&&&&&&X$$$&&$$",
"@@@@@@@@ @@@@@$$X$$@@$@@@@@$$$$&+$&$$$&&@$&$&&$&@&&&&&&&o$@@@@&@",
"+@@@@@@@ @@@$$&$X$@$$$$@O@$@@@$@@@&&$&&&@$&&&$&&@&$$&&&&@@&@$$@@",
"@@@oooooooooOOOOOOoOOOOO@OOo++++@@+@@@@@@@@@@@@@@@@@@.X@@@@@@+o+",
"@@@$$@@@ @@&$&&&O$$$$&$$O$&$@@@$@@&$&&&&@&$$&&&&@&&&&&&&@$$&$$$$",
"O$$$$$@$X$@$$&&&O$$$&&&&O$$$@@@$+$$&&&&&@&&$$$&&@&&&&&$$o$&&$$$@",
"O$$$$$&&@$$$$$&&X$$$$&$$O$$$$$&@@&$$&&$&@$$$&$$$@&$$&$$$o$&&@@@&",
"O$$$$$&&X$$$$$$$X$$&$$$&O$$$$&&&@$@$&@&$@$&&$&&$@$$&&$$$@$&&&&&&",
"X$$$$$&&X$$$$$$$O&&&$$&&o@@$$$&&+$@$$&$&@$$$&$$&@$$$$$$&@$$@$$&&",
"X&$$$$&&@$$&$$$$O&&&$$$&O&$@$$&@+@@$@$$$+&&&$$$$@$$$$&$$o$@@@$&&",
"O&&$$$$&@$$&$&$&X$$$$$&&@&@$$$@@+@@@@@$$@&&&$&&&@&$&&$&$@@@@$$$$",
"O&&&$$$&X$$$$&&&X$$$$$&&@&@@$$$&+@@$@$&$@$&&&$&$@&&$&&@$@@@@$$$$",
"X$$$&&&&X$$$$$$$O&&$$$&&@$$@@$@@+@@@@&$&+@@$$&@&@$$$$@@&+@$$&&$$",
"X$$$&&&&O$$$&$&&O$&&$$&$@$@@$@@@@@@@@&&$@&$&&&@$@&$$$&&&+@$$&@$$",
"X$$$&&$&O&$$&&&&O$@$$$$$X$@@@@$@+@@@&&@$@&&@$$@$@&$@@$&&+@&&$$$$",
"O&$$$$$$O&$$$&&&O$$@$$$$X@$@@@@@+@@@&&$$@$$$$@@@@$@@@@&&+@&&&&@$",
"X$$$$$$$O$$$$$$$O&$$$$$$O$$$@@@$+$$$@$$$@$$@@$$@+@@@$$@$+@$$$$$$",
"X$$$$$$$O$&$$$$$O&$$$$$&O$$&$$$@+@$@$&@@+$@@@@@$+@@@@$$@O$$$@@@@",
"o$$$$$&&O&$$$$$$O&$$$$&&@$&$@$$@+@@$@$$@@$@@@@$@+@@$$$&$O@$@&@&@",
"OOOOOOOOOOOOOOOOOOOOOOO@@@@+@@++@+++@+@+@@@++@++++@+++@OOoXXOOOO",
"O&$$$$&&O$$&&$$$O&$$$$$$@$$&@@@@+@@@@@@@@$@$@@@@+@@$@@@@X@$@$$&&",
"O&$$$$&&O$&&&$$$O&$@$@$$@$$$@&$@+@@$@@@@+@@@@@@@+@@@@@$@X@@@$$@@",
"O$$$&&&&O$&$$$$$O&&$&&$&+@$$$&@&@@@@@@@@+@@@@@@@+@@@@@@@ @@$$$$$",
"O&$$$&&&O$$$$$$$O&&$&@&&@@$$$$@@+@@@@@@@+@@@@@@@+@@@@@@@o@@$$$$$",
"O@&$$$$$X&&$$&&&O$&&&&$$@@$@@$$@@@@@@@@@+@@@@@@@+@@@@@@@ @@@$$$$",
"O$$$$$$$X$&$$&&&O$$&&$$@O@@@$$$$@@@@@@@@+@@@@@@@+@@@@@@@ @@@@$$$",
"O@$$&$$$X$$$$$&&O$&&$$$$+@@&$$$@+@@@@@@@+@@@@@@@+@@@@@@@o@@@@$@@",
"o$&&&$$$O$$$$$&&O$$$$$$$@@$@$@$@+@@@@@@@+@@@@@@@ @@@@@@@o@@@@@@@",
"O$$$$$$&O&&&$$$&O$$$@$$@+@@@@@@@+@@@@@@@+@@@@@@@ $@@@@@@o@@@@@$&",
"O&$$$$$$O&&&$$$$O$$$$$@@+@@@@@@@+@@@@@@@+@@@@@@@+@@@@@@@o@@@@@@$",
"O$$$$$$$O$&&$$$&O@$@$@@@+@@@@@@@+@@@@@@@+@@@@@@@+@@$@@@@o@@@@@$$",
"O$$$$$$&O$$&$$$@O$@@@@@@+@@@@@@@+@@@@@@@+$$$$@@@+@@@@@@@ $@@@@$$",
"O&$$$$&&O$$$$$@@O@@@@@@$+@@@@@@@+@$@@@@@@@@$$@$@+$$$$@@@ @$@$$@$",
"o@@@$$&$O$@$$$@@O@@@@@@$+@@@@@@@+@$@@@@@@$$$&&@@@$$@$@@@o@@$@@@@",
"o@@@@@$$o@$@$$@@o$$@@@@@@@@@@@@@+$$$@@$$@$$$&&@&@$$@@@$@o$$@@@@@",
"oooo  ooooooOoooo++++++++++++++++@+++@+@@@@@@@@@O@+@@+++oOooOooo"
};
