/* XPM */
static char *_fcfaa2a86734aa7bfe583202f9aaedes6pJhvuvjDnOpKT8[] = {
/* columns rows colors chars-per-pixel */
"32 32 2 1 ",
"  c #4B4B4B",
". c gray98",
/* pixels */
"                                ",
"                                ",
"                                ",
"                                ",
"                                ",
"             .......            ",
"           ............         ",
"          .....   ......        ",
"         ....        ...        ",
"         ...                    ",
"         ..                     ",
"         ..                     ",
"         ...                    ",
"         ...                    ",
"          ....                  ",
"          ......                ",
"            ..........          ",
"              ..........        ",
"                    ....        ",
"                      ..        ",
"                      ..        ",
"                     ...        ",
"                   .....        ",
"         ...     ......         ",
"         ............           ",
"          .........             ",
"                                ",
"                                ",
"                                ",
"                                ",
"                                ",
"                                "
};
