/* XPM */
static char *_1ba79299b6d4ab9acc4837f13f244a2p3MK7mX9RU216IAw[] = {
/* columns rows colors chars-per-pixel */
"68 68 2 1 ",
"  c #FBF236",
". c #639BFF",
/* pixels */
"...............         .......            .........................",
"..............           ......              .......................",
"..............           ......                .....................",
".............            ......                    .................",
"............             .......                      ..............",
"..........               .......                         ...........",
".........                ........                         ..........",
"......                  ..........                         .........",
".....                   ...........                         ........",
"....                   .............                        ........",
"...                   ...............                       ........",
"..                    .................                     ........",
"..                     ................                     ........",
"..                      ...............                    .........",
"..                      ...............                   ..........",
"..                       ..............                  ...........",
"...                      ..............           ..................",
"....                     ..............            .................",
".....      ..            ..............            .................",
".............            ..............            .................",
"..............           ..............            .................",
"..............            .............            .................",
"..............            ..............           .................",
"..............            ..............           .................",
"..............            ..............           .................",
"..............            ..............           .................",
"...............           ..............           .................",
"...............           ..............           .................",
"...............           ..............           .................",
"...............           ...............         ..................",
"...............           ................       ...................",
"...............           .................     ....................",
"................         ...........................................",
".................       ............................................",
"..................     .............................................",
"....................................................................",
"....................................................................",
"....................................................................",
"............................               .........................",
".........................                     ......................",
".......................                         ....................",
".....................                            ...................",
"...................                               ..................",
"..................                                 .................",
".................                                   ................",
"................                                     ...............",
"................                                      ..............",
"...............                                        .............",
"..............                                         .............",
"..............                   .....                  ............",
"..............                ...........               ............",
"..............             ................              ...........",
"..............            ..................              ..........",
"..............           ....................             ..........",
"..............           ....................             ..........",
"..............           .....................            ..........",
"..............           ......................           ..........",
"..............           ......................           ..........",
"..............           ......................           ..........",
"..............           .......................         ...........",
"...............         .........................       ............",
"................       ...........................     .............",
".................     ..............................................",
"....................................................................",
"....................................................................",
"....................................................................",
"....................................................................",
"...................................................................."
};
