/* XPM */
static char *aa49a34024a946d6beb4569fffaea970eY58xk4qcG5sT0TE[] = {
/* columns rows colors chars-per-pixel */
"65 65 2 1 ",
"  c #45283C",
". c #D77BBA",
/* pixels */
"                                                                 ",
"                                                                 ",
"                                                                 ",
"                                                                 ",
"                                                                 ",
"                                                                 ",
"                                                                 ",
"                                                                 ",
"                                                                 ",
"                         ...............                         ",
"                      ....................                       ",
"                     .......................                     ",
"                    .........................                    ",
"                   ...........................                   ",
"                  .............................                  ",
"                 ...............................                 ",
"                 ................................                ",
"                .............        ............                ",
"                ..........            ............               ",
"                .........           ................             ",
"                .........         ......................         ",
"          ..............         ........................        ",
"        ................        ..........................       ",
"       .................       ............................      ",
"      ..................      ..............................     ",
"     ...................      ..............................     ",
"    ....................      ..............................     ",
"    ....................      ..........      ..............     ",
"    ....................      .........           ..........     ",
"   ..........   ........      ..........        ............     ",
"   .........    ........      ............    ..............     ",
"   .........    ........       ............................      ",
"   ........     ........       ............................      ",
"   ........     ........        ..........................       ",
"   ........     ........         ........................        ",
"   ........     ........          ......................         ",
"   ........     ........           ...................           ",
"   ........    .........            ................             ",
"   ........    .........              .............              ",
"   ........    .........                   ........              ",
"   ........    .........                   ........              ",
"   .........   ........                    ........              ",
"   .........   ........                    ........              ",
"   .........   ........                    ........              ",
"   ..........  ........     .....          ........              ",
"    ...................    .......         ........              ",
"    ...................   ..........       ........              ",
"     ..................  ............     .........              ",
"     ..................  .............    .........              ",
"      .................. ..............   .........              ",
"       ................................. ..........              ",
"        ..........................................               ",
"         .........................................               ",
"            ......................................               ",
"                ..................................               ",
"                ...............  ................                ",
"                 .............    ..............                 ",
"                  ..........       ...........                   ",
"                    .....            ........                    ",
"                                                                 ",
"                                                                 ",
"                                                                 ",
"                                                                 ",
"                                                                 ",
"                                                                 "
};
