/* XPM */
static char *d4e152fff1784192c67f904b14409bb8ldjMDCtasFZoY0Ru[] = {
/* columns rows colors chars-per-pixel */
"64 64 5 1 ",
"  c #3C332F",
". c #403632",
"X c #453A35",
"o c #4A3F3B",
"O c #4B413B",
/* pixels */
"oooooooooo..oooooooooooXXOOoooooooooXXoooooooooooXXooooooooooo  ",
"oooooooooo..oooooooooooXXOOOooooooooXXoooooooooooXXooooooooooo  ",
"ooooooooooXXooooooooooOXXOOOOoooooooXXoooooooooooXXooooooooooo  ",
"ooooooooooXXooooooooooOXXOOOOoooooooXXoooooooooooXXooooooooooo  ",
"ooooooooooXXooooooooooOXXOOOOoooooooXXoooooooooooXXooooooooooo  ",
"ooooooooooXXoooooooooooXXOOOooooooooXXoooooooooooXXooooooooooo  ",
"ooooooooooXXoooooooooooXXOOOOoooooooXXoooooooooooXXooooooooooo..",
"....XXXXXXXXXXXXXXXXXXXXXXXXXXXXXXXXXXXXXXXXXXXXXX..............",
"ooo.XoooooooOOOOXXoooooOOOOOOXXOOoooooooooXXooooooooooo..ooooooo",
"ooo.XooooooOOOOOXXOOoooOOOOOO..OOOooooooooXXooooooooooo..ooooooo",
"ooo.XooooooOOOOOXXOOOOOOOOOOO..OOOooooooooXXooooooooooo..ooooooo",
"ooo.XooooooOOOOOXXOOOOOOOOOOO..OOOooooooooXXooooooooooo..ooooooo",
"ooo.XoooooooOOOOXXOOOOOOOOoOO..OOoooooooooXXooooooooooo..ooooooo",
"ooo.XooooooooOOOXXOOOOOOOOooO..Ooooooooooo.Xooooooooooo..ooooooo",
"oooXXooooooooooOXXOOOOOOOOooo..ooooooooooo..ooooooooooo.Xooooooo",
"..XXXXXXXXXXXXXXXXXXX........................XX........XXXXX....",
"oOOOooooooXXoooOOOOOOOO..ooooooooooo..ooooooooooo..oooooooooooXX",
"OOOOOoooooXXoooOOOOOOOO..ooooooooooo..ooooooooooo..oooooooooooX.",
"OOOOOOooooXXooOOOOOOOOO..ooooooOoooo..ooooooooooo..ooooooooooo..",
"OOOOOOooooXXoOOOOOOOOOO..oooooOOoooo..ooooooooooo..ooooooooooo..",
"OOOOOOooooXXoOOOOOOOOOO..ooooooOOooo..ooooooooooo..ooooooooooo..",
"OOOOOoooOOXXoOOOOOOOOOO..ooooooooooo..ooooooooooo..OOOoooooooo..",
"oOOOoooOOOXXooOOOOOOOOO..ooooooooooo..ooooooooooo..OOOOooooooo..",
".......XXXXXXXXXXX.....................        .................",
"ooo..OOOOOOOOOOOX.OOOOooooooo..ooooooooooo  oooooOOOOOO..OOOoooo",
"oooXXOOOOOOOOOOO..OOooooooooo  ooooooooooo  oooooOOOOOO..OOOOooo",
"ooOXXOOOOOOOOOOO..ooooooooooo  ooooooooooo  ooooOOOOOOO..OOOOOoo",
"ooOXXOOOOOOOOOOO..ooooooooooo  ooooooooooo  ooooOOOOOOO..OOOOOoo",
"ooOXXOOOOooOOOOO..ooooooooooo  ooooooooooo  ooooOOOOOOO..OOOOOOo",
"OOOXXOOOooooOOOoX.ooooooooooo  ooooooooooo  oooooOOOOOO..OOOOOOO",
"OOOXXOOOOoooooooX.ooooooooooo  ooooooooooo  ooooooOOOOO..OOOOOOO",
"....XXXXXXXXXXXXXX....                          XXXX............",
"OOOOOOOOOOXXooooooooooo  ooooooooooo  oooooooooooXXoOOOOOOOOOO..",
"OOOOOOOOOOXXooOOooooooo  ooooooooooo  oooooooooooXXoOOOOOOOOOO..",
"OOOoOOOOOOXXoOOOooooooo  ooooooooooo  oooooooooooXXoOOOOOOOOOO..",
"OOOooOOOOOXXOOOOOoooooo  ooooooooooo  oooooooooooXXoOOOOOOOOOO. ",
"OOooooOOOoXXOOOOOOooooo  ooooooooooo  oooooooooooXXooOOOOOOOOO  ",
"OoooooooooXXOOOOOOOoooo  ooooooooooo  oooooooooooXXoooOOOOOOOO  ",
"oooOOOoooOXXOOOOOOooooo  ooooooooooo  oooooooooooXXoooOOOOOOOO  ",
"         XXXX.......                .........XX....XXXXX.       ",
"oOO  OOOoooooOOo..ooooooooooo  ooooooooooo..ooooooooOOOX OOOoooo",
"oOO  OOoooooooOo..ooooooooooo  ooooooooooo..oooooooOOOOX OOooooo",
"oOO  OOooooooooo..ooooooooooo..ooooooooooo..ooooooOOOOOX ooooooo",
"ooO..OOooooooooo..ooooooooooo..ooooooooooo..ooooooOOOOOX ooooooo",
"OOo..Ooooooooooo..ooooooooooo..ooooooooooo..ooooooOOOOOX.ooooooO",
"OOO..Ooooooooooo..ooooooooooo..ooooooooooo..oooooooOOOO..oooooOO",
"OOO..ooooooooooo..ooooooooooo..ooooooooooo..ooooooooOOO..ooooOOO",
"............................X......................XXXX.........",
"OOOOoooooo..ooooooooooo..ooooooooooo..oooooooooooXXooooooooooO..",
"OOOooooooo..ooooooooooo..ooooooooooo..oooooooooooXXooooooooooo..",
"OOoooooooo..ooooooooooo..oooooooooooXXoooooooooooXXooooooooooo..",
"oooooooooo..ooooooooooo..oooooOoooooXXoooooooooooX.ooooooooooo..",
"oooooooooo..ooooooooooo..oooooOOOoooXXooooooooooo..ooooooooooo..",
"oooooooooo..ooooooooooo..ooooOOOOOooXXooooooooooo..ooooooooooo.X",
"oooooooooo..ooooooooooo..oooOOOOOOOOXXooooooooooo..oooooooooooXX",
"XXXXXXXXXX.................XXXXXXXXXXXXXXXXXXXX..............XXX",
"oooXXooooooooooo..oooooooooOOXXOOOOOOOOOooXXOoooooooooo..ooooooo",
"oooXXoooooooooooXXoooooooooooXXOOOOOOOOOOOXXOOooooooooo..ooooooo",
"oooXXoooooooooooXXoooooooooooXXOOOOOOOOOOOXXOOOoooooooo..ooooooo",
"oooXXoooooooooooXXoooooooooooXXOOOOOOOOOOOXXOOOoooooooo..ooooooo",
"oooXXoooooooooooXXoooooooooooXXOOOOOOOOOOOXXOOOooooooooXXooooooo",
"oooXXoooooooooooXXoooooooooooXXOOOOOOOOOOOXXOOoooooooooXXooooooo",
"oooXXoooooooooooXXoooooooooooXXOOoOOOOOOOOXXOooooooooooXXooooooo",
"XXXXXXXXXXXXXXXXXXXXXXXXXXXXXXXXXXXXXXXXXXXXXXXXXXXXXXXXXXXXXXXX"
};
