/* XPM */
static char *a7e440330fc74383c02ba4ab89da6ad2YKYJTtBLv8Nx1U4r[] = {
/* columns rows colors chars-per-pixel */
"32 32 2 1 ",
"  c #58AEEE",
". c #F9D381",
/* pixels */
"                                ",
"                                ",
"                                ",
"                                ",
"                                ",
"                                ",
"                                ",
"      ..                ..      ",
"      ..                ..      ",
"      ..                ..      ",
"      ...              ...      ",
"       ..              ..       ",
"       ..              ..       ",
"       ..              ..       ",
"       ..              ..       ",
"       ...            ...       ",
"        ..     ..     ..        ",
"        ..    ....    ..        ",
"        ..   ......   ..        ",
"        ..  ...  ...  ..        ",
"        ......    ......        ",
"         ....      ....         ",
"         ...        ...         ",
"         ..          ..         ",
"                                ",
"                                ",
"                                ",
"                                ",
"                                ",
"                                ",
"                                ",
"                                "
};
